<?xml version="1.0" encoding="UTF-8" standalone="no"?>
<!-- Created with Inkscape (http://www.inkscape.org/) -->

<svg
   width="210mm"
   height="297mm"
   viewBox="0 0 210 297"
   version="1.1"
   id="svg5"
   inkscape:export-filename="barycentres.png"
   inkscape:export-xdpi="150"
   inkscape:export-ydpi="150"
   inkscape:version="1.2.2 (b0a8486541, 2022-12-01)"
   sodipodi:docname="barycentres.svg"
   xmlns:inkscape="http://www.inkscape.org/namespaces/inkscape"
   xmlns:sodipodi="http://sodipodi.sourceforge.net/DTD/sodipodi-0.dtd"
   xmlns="http://www.w3.org/2000/svg"
   xmlns:svg="http://www.w3.org/2000/svg">
  <sodipodi:namedview
     id="namedview7"
     pagecolor="#ffffff"
     bordercolor="#666666"
     borderopacity="1.0"
     inkscape:showpageshadow="2"
     inkscape:pageopacity="0.0"
     inkscape:pagecheckerboard="0"
     inkscape:deskcolor="#d1d1d1"
     inkscape:document-units="mm"
     showgrid="false"
     inkscape:zoom="1.5500842"
     inkscape:cx="434.16997"
     inkscape:cy="478.03856"
     inkscape:window-width="1878"
     inkscape:window-height="1011"
     inkscape:window-x="1122"
     inkscape:window-y="394"
     inkscape:window-maximized="1"
     inkscape:current-layer="layer1" />
  <defs
     id="defs2" />
  <g
     inkscape:label="Layer 1"
     inkscape:groupmode="layer"
     id="layer1">
    <path
       style="fill:#ff0000;fill-opacity:0;stroke:#000000;stroke-width:0.79375;stroke-linejoin:round;stroke-dasharray:none;stroke-opacity:1"
       d="M 56.906038,134.21139 110.60994,82.648879 131.93043,146.71478 Z"
       id="path186" />
    <path
       style="fill:#ff0000;fill-opacity:0;stroke:#c50000;stroke-width:0;stroke-linejoin:round;stroke-dasharray:none;stroke-opacity:1"
       id="path3478"
       d="m 52.795654,135.18317 c 0.815826,0.64772 1.647279,1.27481 2.474129,1.90811 0.581562,0.43426 1.222015,0.78019 1.813446,1.19894 0.257336,0.24254 0.657897,0.41889 0.794888,0.76618 0.0013,0.024 0.0069,0.0482 0.0037,0.072 -0.0141,0.1066 -0.250732,0.16586 -0.146661,0.10242 1.451734,-0.88492 2.081008,-0.93634 1.430954,-0.87301 -0.24936,-0.063 -0.393269,-0.2683 -0.521864,-0.47554 -0.02879,-0.043 -0.05759,-0.0859 -0.08638,-0.12888 0,0 -1.579491,0.92696 -1.579491,0.92696 v 0 c 0.02766,0.0405 0.05532,0.081 0.08299,0.12152 0.147917,0.24315 0.316269,0.48534 0.589105,0.5974 0.71039,0.35003 2.031182,-0.44562 1.827408,-1.24702 -0.187182,-0.3689 -0.557027,-0.57965 -0.867696,-0.83411 -0.594203,-0.41717 -1.234254,-0.76551 -1.829019,-1.18278 -0.829702,-0.60952 -1.66638,-1.2134 -2.424827,-1.91237 0,0 -1.560677,0.96018 -1.560677,0.96018 z" />
    <circle
       style="fill:none;fill-opacity:0;stroke:#840000;stroke-width:0.79375;stroke-linejoin:round;stroke-dasharray:none;stroke-opacity:1"
       id="path5302"
       cx="56.596554"
       cy="134.36147"
       r="1.0583595" />
    <circle
       style="fill:none;fill-opacity:0;stroke:#840000;stroke-width:0.79375;stroke-linejoin:round;stroke-dasharray:none;stroke-opacity:1"
       id="circle5322"
       cx="110.92046"
       cy="82.350121"
       r="1.0583595" />
    <circle
       style="fill:none;fill-opacity:0;stroke:#840000;stroke-width:0.79375;stroke-linejoin:round;stroke-dasharray:none;stroke-opacity:1"
       id="circle5324"
       cx="132.11026"
       cy="146.85768"
       r="1.0583595" />
    <text
       xml:space="preserve"
       style="font-style:normal;font-weight:normal;font-size:4.65281px;line-height:1.25;font-family:sans-serif;fill:#000000;fill-opacity:1;stroke:none;stroke-width:0.11632"
       x="48.880962"
       y="140.4798"
       id="text5380"><tspan
         sodipodi:role="line"
         id="tspan5378"
         style="stroke-width:0.11632"
         x="48.880962"
         y="140.4798">(1, 0, 0)</tspan></text>
    <text
       xml:space="preserve"
       style="font-style:normal;font-weight:normal;font-size:4.65281px;line-height:1.25;font-family:sans-serif;fill:#000000;fill-opacity:1;stroke:none;stroke-width:0.11632"
       x="91.675224"
       y="83.773605"
       id="text5434"><tspan
         sodipodi:role="line"
         id="tspan5432"
         style="stroke-width:0.11632"
         x="91.675224"
         y="83.773605">(0, 1, 0)</tspan></text>
    <text
       xml:space="preserve"
       style="font-style:normal;font-weight:normal;font-size:4.65281px;line-height:1.25;font-family:sans-serif;fill:#000000;fill-opacity:1;stroke:none;stroke-width:0.11632"
       x="126.99998"
       y="152.96606"
       id="text5438"><tspan
         sodipodi:role="line"
         id="tspan5436"
         style="stroke-width:0.11632"
         x="126.99998"
         y="152.96606">(0, 0, 1)</tspan></text>
    <circle
       style="fill:none;fill-opacity:0;stroke:#840000;stroke-width:0.79375;stroke-linejoin:round;stroke-dasharray:none;stroke-opacity:1"
       id="circle5440"
       cx="94.175636"
       cy="123.70871"
       r="1.0583595" />
    <text
       xml:space="preserve"
       style="font-style:normal;font-weight:normal;font-size:4.65281px;line-height:1.25;font-family:sans-serif;fill:#000000;fill-opacity:1;stroke:none;stroke-width:0.11632"
       x="96.001472"
       y="125.64993"
       id="text5444"><tspan
         sodipodi:role="line"
         id="tspan5442"
         style="stroke-width:0.11632"
         x="96.001472"
         y="125.64993">(a, b, c)</tspan></text>
  </g>
</svg>
